<svg width="1440" height="700" viewBox="0 0 1440 700" fill="none" xmlns="http://www.w3.org/2000/svg">
<g clip-path="url(#clip0_22_425)">
<path d="M-107 800L1493 800L1493 6.10352e-05L-107 -7.88413e-05L-107 800Z" fill="#B26410"/>
<path d="M1007 94.2C1116.3 116 1230.4 126.4 1342.3 113.6C1393.5 107.9 1444 97 1493 80.2L1493 3.05176e-05L649.2 -4.32498e-05C765.1 33.2 880 68.1 996.8 92.2C1000.2 92.9 1003.6 93.5 1007 94.2Z" fill="#B86D15"/>
<path d="M-107 800L1493 800L1493 80.2001C1444 97.0001 1393.5 108 1342.3 113.7C1230.4 126.4 1116.3 116.1 1007 94.3C1003.6 93.6 1000.2 92.9 996.8 92.3C880 68.3 765.1 33.3 649.2 0.0999629L-107 0.0998967L-107 800Z" fill="#BE771B"/>
<path d="M1014.6 219C1011.4 218.2 1008.2 217.3 1005.1 216.5C808.9 164 616.4 83 411.6 39.9C237.4 3.3 62.1 10.6999 -107 50.0999L-107 800L1493 800L1493 225.1C1440.7 242.7 1386.5 252.8 1331.9 256C1224.6 262.6 1117.3 245.8 1014.6 219Z" fill="#C38020"/>
<path d="M1493 800L1493 370.6C1437.4 389 1379.5 397.9 1321.6 398.3C1218.8 399.1 1118.4 375.6 1022.3 343.8C1019.3 342.8 1016.4 341.8 1013.4 340.8C829.8 278.8 647.7 194.7 451 148.7C264.3 105 74.7 114.3 -106.9 161.3L-106.9 800L1493 800Z" fill="#C98A26"/>
<path d="M1311.2 540.6C1213 534.6 1119.3 505.4 1029.9 468.5C1027.1 467.4 1024.4 466.2 1021.6 465.1C850.6 393.5 678.9 306.6 490.3 257.4C291.5 205.6 86.9001 216.6 -107 272.2L-107 800L1493 800L1493 516.8C1434 536.4 1372.4 544.3 1311.2 540.6Z" fill="#CF932B"/>
<path d="M-107 800L1493 800L1493 663.7C1430.7 684.6 1365.3 691.2 1300.8 682.9C1207.2 670.8 1120.3 635.2 1037.5 593.3C1034.9 592 1032.4 590.7 1029.8 589.4C871.4 508.3 710.1 418.5 529.5 366.2C319 305.2 98.7001 317.2 -107.1 382.8L-107.1 800L-107 800Z" fill="#D7A650"/>
<path d="M1038.1 713.7C892.3 623 741.4 530.7 568.9 475C360.3 407.6 137.6 414.2 -69.0001 480.3C-81.8001 484.4 -94.4001 488.7 -107.1 493.2L-107.1 800L1204.9 800C1148.9 778.7 1096.2 749.4 1045.2 718C1042.8 716.6 1040.5 715.1 1038.1 713.7Z" fill="#E0B976"/>
<path d="M-107 800L995 800C876.9 714.2 751.5 635.5 608.2 583.8C416.4 514.6 208.2 509.1 13.2 562.7C-27.6 573.9 -67.9 587.9 -107.1 604.4L-107.1 800L-107 800Z" fill="#E8CC9B"/>
<path d="M95.5001 645.2C48.3001 655.8 1.90016 670.5 -43.0998 689C-64.7999 697.9 -86.0998 707.8 -107 718.5L-107 800L849.6 800C786.7 758.3 719.9 721.8 647.5 692.6C472.6 621.9 278.8 603.9 95.5001 645.2Z" fill="#F1DFC1"/>
<path d="M177.7 727.6C102.4 740.2 28.7999 764.7 -39.1001 800L683.9 800C526.2 729 348.3 699 177.7 727.6Z" fill="#F9F2E6"/>
</g>
<defs>
<clipPath id="clip0_22_425">
<rect width="1600" height="800" fill="white" transform="translate(1493 800) rotate(-180)"/>
</clipPath>
</defs>
</svg>
